<!DOCTYPE svg PUBLIC "-//W3C//DTD SVG 1.1//EN" "http://www.w3.org/Graphics/SVG/1.1/DTD/svg11.dtd">
<!-- Uploaded to: SVG Repo, www.svgrepo.com, Transformed by: SVG Repo Mixer Tools -->
<svg fill="#f8f7f7" width="800px" height="800px" viewBox="0 0 24 24" xmlns="http://www.w3.org/2000/svg">
<g id="SVGRepo_bgCarrier" stroke-width="0"/>
<g id="SVGRepo_tracerCarrier" stroke-linecap="round" stroke-linejoin="round"/>
<g id="SVGRepo_iconCarrier">
<path d="M14,11H10a2,2,0,0,1,0-4h5a1,1,0,0,1,1,1,1,1,0,0,0,2,0,3,3,0,0,0-3-3H13V3a1,1,0,0,0-2,0V5H10a4,4,0,0,0,0,8h4a2,2,0,0,1,0,4H9a1,1,0,0,1-1-1,1,1,0,0,0-2,0,3,3,0,0,0,3,3h2v2a1,1,0,0,0,2,0V19h1a4,4,0,0,0,0-8Z"/>
</g>
</svg>